<svg width="30" height="30" viewBox="0 0 30 30" fill="none" xmlns="http://www.w3.org/2000/svg">
<path d="M23.75 13.75V12.5C23.75 7.78625 23.75 5.42875 22.285 3.965C20.82 2.50125 18.4637 2.5 13.75 2.5C9.03625 2.5 6.67875 2.5 5.215 3.965C3.75125 5.43 3.75 7.78625 3.75 12.5V17.5C3.75 22.2137 3.75 24.5712 5.215 26.035C6.68 27.4987 9.03625 27.5 13.75 27.5" stroke="#155EEF" stroke-width="1.5" stroke-linecap="round" stroke-linejoin="round"/>
<path d="M26.2501 27.5L24.1076 25.3575M24.8214 21.7863C24.8311 22.3553 24.7274 22.9204 24.5164 23.4489C24.3054 23.9774 23.9913 24.4585 23.5924 24.8643C23.1934 25.2701 22.7177 25.5924 22.1929 25.8124C21.6681 26.0324 21.1048 26.1457 20.5358 26.1457C19.9667 26.1457 19.4034 26.0324 18.8786 25.8124C18.3538 25.5924 17.8781 25.2701 17.4792 24.8643C17.0802 24.4585 16.7661 23.9774 16.5551 23.4489C16.3441 22.9204 16.2404 22.3553 16.2501 21.7863C16.2693 20.6624 16.7293 19.5909 17.5309 18.8029C18.3325 18.0148 19.4117 17.5732 20.5358 17.5732C21.6599 17.5732 22.739 18.0148 23.5406 18.8029C24.3422 19.5909 24.8022 20.6624 24.8214 21.7863Z" stroke="#155EEF" stroke-width="1.5" stroke-linecap="round"/>
<path d="M8.75 8.75H18.75M8.75 13.75H13.75" stroke="#155EEF" stroke-width="1.5" stroke-linecap="round" stroke-linejoin="round"/>
</svg>
