<svg width="30" height="30" viewBox="0 0 30 30" fill="none" xmlns="http://www.w3.org/2000/svg">
<path d="M15 1.875C12.4041 1.875 9.86654 2.64477 7.70815 4.08696C5.54975 5.52915 3.86749 7.579 2.87409 9.97728C1.88069 12.3756 1.62077 15.0146 2.1272 17.5606C2.63363 20.1066 3.88366 22.4452 5.71923 24.2808C7.55479 26.1163 9.89345 27.3664 12.4394 27.8728C14.9854 28.3792 17.6244 28.1193 20.0227 27.1259C22.421 26.1325 24.4709 24.4503 25.913 22.2919C27.3552 20.1335 28.125 17.5959 28.125 15C28.121 11.5203 26.737 8.18416 24.2764 5.72361C21.8158 3.26305 18.4798 1.87897 15 1.875ZM15 26.25C12.0163 26.25 9.15484 25.0647 7.04505 22.955C4.93527 20.8452 3.75001 17.9837 3.75001 15C3.75001 12.0163 4.93527 9.15483 7.04505 7.04505C9.15484 4.93526 12.0163 3.75 15 3.75V15L22.9509 22.9509C21.9083 23.9975 20.6692 24.8277 19.3047 25.3939C17.9402 25.96 16.4773 26.251 15 26.25Z" fill="#F89520"/>
</svg>
