<svg width="30" height="30" viewBox="0 0 30 30" fill="none" xmlns="http://www.w3.org/2000/svg">
<path d="M26.2498 26.2498L20.821 20.821M20.821 20.821C21.7496 19.8924 22.4862 18.79 22.9888 17.5767C23.4914 16.3634 23.75 15.063 23.75 13.7498C23.75 12.4365 23.4914 11.1361 22.9888 9.92284C22.4862 8.70955 21.7496 7.60713 20.821 6.67852C19.8924 5.74991 18.79 5.0133 17.5767 4.51074C16.3634 4.00818 15.063 3.74951 13.7498 3.74951C12.4365 3.74951 11.1361 4.00818 9.92284 4.51074C8.70955 5.0133 7.60713 5.74991 6.67852 6.67852C4.80311 8.55393 3.74951 11.0975 3.74951 13.7498C3.74951 16.402 4.80311 18.9456 6.67852 20.821C8.55393 22.6964 11.0975 23.75 13.7498 23.75C16.402 23.75 18.9456 22.6964 20.821 20.821Z" stroke="#155EEF" stroke-width="1.5" stroke-linecap="round" stroke-linejoin="round"/>
</svg>
