<svg width="178" height="41" viewBox="0 0 178 41" fill="none" xmlns="http://www.w3.org/2000/svg">
<path d="M0.000325441 37.6821C0.000325441 36.2094 1.19423 35.0155 2.66699 35.0155C4.13975 35.0155 5.33366 36.2094 5.33366 37.6821C5.33366 39.1549 4.13975 40.3488 2.66699 40.3488C1.19423 40.3488 0.000325441 39.1549 0.000325441 37.6821ZM177.021 3.32858C177.216 3.52384 177.216 3.84042 177.021 4.03568L173.839 7.21766C173.643 7.41293 173.327 7.41293 173.131 7.21766C172.936 7.0224 172.936 6.70582 173.131 6.51056L175.96 3.68213L173.131 0.853703C172.936 0.65844 172.936 0.341858 173.131 0.146595C173.327 -0.0486679 173.643 -0.0486679 173.839 0.146595L177.021 3.32858ZM2.66699 37.6821V37.1821H3.66466V37.6821V38.1821H2.66699V37.6821ZM5.65999 37.6821V37.1821H7.65532V37.6821V38.1821H5.65999V37.6821ZM9.65065 37.6821V37.1821H11.646V37.6821V38.1821H9.65065V37.6821ZM13.6413 37.6821V37.1821H15.6366V37.6821V38.1821H13.6413V37.6821ZM17.632 37.6821V37.1821H19.6273V37.6821V38.1821H17.632V37.6821ZM21.6226 37.6821V37.1821H23.618V37.6821V38.1821H21.6226V37.6821ZM25.6133 37.6821V37.1821H27.6086V37.6821V38.1821H25.6133V37.6821ZM29.6039 37.6821V37.1821H31.5993V37.6821V38.1821H29.6039V37.6821ZM33.5946 37.6821V37.1821H35.5899V37.6821V38.1821H33.5946V37.6821ZM37.5853 37.6821V37.1821H39.5806V37.6821V38.1821H37.5853V37.6821ZM41.5759 37.6821V37.1821H43.5713V37.6821V38.1821H41.5759V37.6821ZM45.5666 37.6821V37.1821H47.5619V37.6821V38.1821H45.5666V37.6821ZM49.5572 37.6821V37.1821H51.5526V37.6821V38.1821H49.5572V37.6821ZM53.5479 37.6821V37.1821H55.5432V37.6821V38.1821H53.5479V37.6821ZM57.5386 37.6821V37.1821H59.5339V37.6821V38.1821H57.5386V37.6821ZM61.5292 37.6821V37.1821H63.5246V37.6821V38.1821H61.5292V37.6821ZM65.5199 37.6821V37.1821H67.5152V37.6821V38.1821H65.5199V37.6821ZM69.5106 37.6821V37.1821H71.5059V37.6821V38.1821H69.5106V37.6821ZM73.5012 37.6821V37.1821H75.4965V37.6821V38.1821H73.5012V37.6821ZM77.4919 37.6821V37.1821H79.4872V37.6821V38.1821H77.4919V37.6821ZM81.4825 37.6821V37.1821H83.4779V37.6821V38.1821H81.4825V37.6821ZM85.4732 37.6821V37.1821H87.4685V37.6821V38.1821H85.4732V37.6821ZM89.4639 37.6821V37.1821H91.4592V37.6821V38.1821H89.4639V37.6821ZM93.4545 37.6821V37.1821H95.4499V37.6821V38.1821H93.4545V37.6821ZM97.4452 37.6821V37.1821H99.4405V37.6821V38.1821H97.4452V37.6821ZM101.436 37.6821V37.1821H103.431V37.6821V38.1821H101.436V37.6821ZM105.427 37.6821V37.1821H106.424V37.6821V38.1821H105.427V37.6821ZM106.424 37.6821V37.1821C106.772 37.1821 107.116 37.1652 107.454 37.1323L107.503 37.6299L107.551 38.1276C107.18 38.1637 106.804 38.1821 106.424 38.1821V37.6821ZM109.618 37.2112L109.473 36.7327C110.137 36.5316 110.773 36.2664 111.374 35.9445L111.61 36.3852L111.846 36.826C111.188 37.1787 110.491 37.4693 109.763 37.6897L109.618 37.2112ZM113.403 35.1856L113.085 34.7992C113.617 34.3625 114.105 33.8747 114.541 33.3431L114.928 33.6606L115.314 33.978C114.836 34.5598 114.302 35.0939 113.72 35.5719L113.403 35.1856ZM116.127 31.8684L115.686 31.6323C116.008 31.0312 116.274 30.3951 116.475 29.7314L116.953 29.8763L117.432 30.0213C117.211 30.7489 116.921 31.4459 116.568 32.1045L116.127 31.8684ZM117.372 27.7607L116.874 27.7123C116.907 27.3735 116.924 27.0299 116.924 26.6821H117.424H117.924C117.924 27.0623 117.906 27.4382 117.87 27.8092L117.372 27.7607ZM117.424 26.6821H116.924V25.6821H117.424H117.924V26.6821H117.424ZM117.424 23.6821H116.924V21.6821H117.424H117.924V23.6821H117.424ZM117.424 19.6821H116.924V17.6821H117.424H117.924V19.6821H117.424ZM117.424 15.6821H116.924V14.6821H117.424H117.924V15.6821H117.424ZM117.424 14.6821H116.924C116.924 14.302 116.943 13.926 116.979 13.5551L117.476 13.6035L117.974 13.652C117.941 13.9908 117.924 14.3344 117.924 14.6821H117.424ZM117.895 11.4879L117.417 11.3429C117.637 10.6154 117.928 9.91834 118.28 9.25976L118.721 9.49584L119.162 9.73192C118.84 10.3331 118.575 10.9691 118.374 11.6329L117.895 11.4879ZM119.921 7.70369L119.534 7.38628C120.012 6.80445 120.546 6.2704 121.128 5.79236L121.446 6.17869L121.763 6.56502C121.232 7.00171 120.744 7.4896 120.307 8.02111L119.921 7.70369ZM123.238 4.97904L123.002 4.53828C123.66 4.18554 124.357 3.89499 125.085 3.67455L125.23 4.15308L125.375 4.6316C124.711 4.8327 124.075 5.09781 123.474 5.4198L123.238 4.97904ZM127.346 3.73434L127.297 3.23669C127.668 3.20059 128.044 3.18213 128.424 3.18213V3.68213V4.18213C128.076 4.18213 127.733 4.19902 127.394 4.23199L127.346 3.73434ZM128.424 3.68213V3.18213H129.429V3.68213V4.18213H128.424V3.68213ZM131.439 3.68213V3.18213H133.449V3.68213V4.18213H131.439V3.68213ZM135.46 3.68213V3.18213H137.47V3.68213V4.18213H135.46V3.68213ZM139.48 3.68213V3.18213H141.49V3.68213V4.18213H139.48V3.68213ZM143.5 3.68213V3.18213H145.51V3.68213V4.18213H143.5V3.68213ZM147.52 3.68213V3.18213H149.53V3.68213V4.18213H147.52V3.68213ZM151.541 3.68213V3.18213H153.551V3.68213V4.18213H151.541V3.68213ZM155.561 3.68213V3.18213H157.571V3.68213V4.18213H155.561V3.68213ZM159.581 3.68213V3.18213H161.591V3.68213V4.18213H159.581V3.68213ZM163.601 3.68213V3.18213H165.611V3.68213V4.18213H163.601V3.68213ZM167.621 3.68213V3.18213H169.632V3.68213V4.18213H167.621V3.68213ZM171.642 3.68213V3.18213H173.652V3.68213V4.18213H171.642V3.68213ZM175.662 3.68213V3.18213H176.667V3.68213V4.18213H175.662V3.68213Z" fill="#838383"/>
</svg>
