<svg width="108" height="105" viewBox="0 0 108 105" fill="none" xmlns="http://www.w3.org/2000/svg">
<path d="M0.000325441 101.682C0.000325441 100.209 1.19423 99.0155 2.66699 99.0155C4.13975 99.0155 5.33366 100.209 5.33366 101.682C5.33366 103.155 4.13975 104.349 2.66699 104.349C1.19423 104.349 0.000325441 103.155 0.000325441 101.682ZM107.021 3.32858C107.216 3.52383 107.216 3.84042 107.021 4.03568L103.839 7.21766C103.643 7.41293 103.327 7.41293 103.131 7.21766C102.936 7.0224 102.936 6.70582 103.131 6.51056L105.96 3.68213L103.131 0.853699C102.936 0.65844 102.936 0.341858 103.131 0.146591C103.327 -0.0486679 103.643 -0.0486679 103.839 0.146591L107.021 3.32858ZM2.66699 101.682V101.182H3.69539V101.682V102.182H2.66699V101.682ZM5.7522 101.682V101.182H7.809V101.682V102.182H5.7522V101.682ZM9.8658 101.682V101.182H11.9226V101.682V102.182H9.8658V101.682ZM13.9794 101.682V101.182H16.0362V101.682V102.182H13.9794V101.682ZM18.093 101.682V101.182H20.1498V101.682V102.182H18.093V101.682ZM22.2066 101.682V101.182H24.2634V101.682V102.182H22.2066V101.682ZM26.3202 101.682V101.182H28.377V101.682V102.182H26.3202V101.682ZM30.4338 101.682V101.182H32.4906V101.682V102.182H30.4338V101.682ZM34.5474 101.682V101.182H36.6042V101.682V102.182H34.5474V101.682ZM38.661 101.682V101.182H40.7178V101.682V102.182H38.661V101.682ZM42.7747 101.682V101.182H44.8315V101.682V102.182H42.7747V101.682ZM46.8883 101.682V101.182H48.9451V101.682V102.182H46.8883V101.682ZM51.0019 101.682V101.182H53.0587V101.682V102.182H51.0019V101.682ZM55.1155 101.682V101.182H57.1723V101.682V102.182H55.1155V101.682ZM59.2291 101.682V101.182H60.2575V101.682V102.182H59.2291V101.682ZM60.2575 101.682V101.182C60.6052 101.182 60.9488 101.165 61.2876 101.132L61.3361 101.63L61.3845 102.128C61.0136 102.164 60.6376 102.182 60.2575 102.182V101.682ZM63.4517 101.211L63.3067 100.733C63.9705 100.532 64.6065 100.266 65.2077 99.9445L65.4438 100.385L65.6798 100.826C65.0213 101.179 64.3242 101.469 63.5967 101.69L63.4517 101.211ZM67.2359 99.1856L66.9185 98.7992C67.45 98.3625 67.9379 97.8747 68.3746 97.3431L68.7609 97.6606L69.1472 97.978C68.6692 98.5598 68.1351 99.0939 67.5533 99.5719L67.2359 99.1856ZM69.9606 95.8684L69.5198 95.6323C69.8418 95.0312 70.1069 94.3951 70.308 93.7314L70.7865 93.8763L71.265 94.0213C71.0446 94.7489 70.7541 95.4459 70.4013 96.1045L69.9606 95.8684ZM71.2053 91.7607L70.7076 91.7123C70.7406 91.3735 70.7575 91.0299 70.7575 90.6821H71.2575H71.7575C71.7575 91.0623 71.739 91.4382 71.7029 91.8092L71.2053 91.7607ZM71.2575 90.6821H70.7575V89.6821H71.2575H71.7575V90.6821H71.2575ZM71.2575 87.6821H70.7575V85.6821H71.2575H71.7575V87.6821H71.2575ZM71.2575 83.6821H70.7575V81.6821H71.2575H71.7575V83.6821H71.2575ZM71.2575 79.6821H70.7575V77.6821H71.2575H71.7575V79.6821H71.2575ZM71.2575 75.6821H70.7575V73.6821H71.2575H71.7575V75.6821H71.2575ZM71.2575 71.6821H70.7575V69.6821H71.2575H71.7575V71.6821H71.2575ZM71.2575 67.6821H70.7575V65.6821H71.2575H71.7575V67.6821H71.2575ZM71.2575 63.6821H70.7575V61.6821H71.2575H71.7575V63.6821H71.2575ZM71.2575 59.6821H70.7575V57.6821H71.2575H71.7575V59.6821H71.2575ZM71.2575 55.6821H70.7575V53.6821H71.2575H71.7575V55.6821H71.2575ZM71.2575 51.6821H70.7575V49.6821H71.2575H71.7575V51.6821H71.2575ZM71.2575 47.6821H70.7575V45.6821H71.2575H71.7575V47.6821H71.2575ZM71.2575 43.6821H70.7575V41.6821H71.2575H71.7575V43.6821H71.2575ZM71.2575 39.6821H70.7575V37.6821H71.2575H71.7575V39.6821H71.2575ZM71.2575 35.6821H70.7575V33.6821H71.2575H71.7575V35.6821H71.2575ZM71.2575 31.6821H70.7575V29.6821H71.2575H71.7575V31.6821H71.2575ZM71.2575 27.6821H70.7575V25.6821H71.2575H71.7575V27.6821H71.2575ZM71.2575 23.6821H70.7575V21.6821H71.2575H71.7575V23.6821H71.2575ZM71.2575 19.6821H70.7575V17.6821H71.2575H71.7575V19.6821H71.2575ZM71.2575 15.6821H70.7575V14.6821H71.2575H71.7575V15.6821H71.2575ZM71.2575 14.6821H70.7575C70.7575 14.302 70.7759 13.926 70.812 13.5551L71.3097 13.6035L71.8073 13.652C71.7744 13.9908 71.7575 14.3344 71.7575 14.6821H71.2575ZM71.7284 11.4879L71.2499 11.3429C71.4703 10.6154 71.7609 9.91834 72.1136 9.25977L72.5544 9.49584L72.9951 9.73192C72.6731 10.3331 72.408 10.9691 72.2069 11.6329L71.7284 11.4879ZM73.754 7.7037L73.3677 7.38628C73.8457 6.80445 74.3798 6.2704 74.9616 5.79236L75.279 6.17869L75.5965 6.56502C75.0649 7.00172 74.5771 7.4896 74.1404 8.02111L73.754 7.7037ZM77.0712 4.97904L76.8351 4.53828C77.4937 4.18554 78.1907 3.89499 78.9183 3.67455L79.0633 4.15308L79.2082 4.63159C78.5445 4.8327 77.9084 5.09781 77.3073 5.4198L77.0712 4.97904ZM81.1789 3.73434L81.1304 3.23669C81.5014 3.20059 81.8773 3.18213 82.2575 3.18213V3.68213V4.18213C81.9097 4.18213 81.5661 4.19901 81.2273 4.23199L81.1789 3.73434ZM82.2575 3.68213V3.18213H83.2745V3.68213V4.18213H82.2575V3.68213ZM85.3087 3.68213V3.18213H87.3428V3.68213V4.18213H85.3087V3.68213ZM89.3769 3.68213V3.18213H91.411V3.68213V4.18213H89.3769V3.68213ZM93.4452 3.68213V3.18213H95.4793V3.68213V4.18213H93.4452V3.68213ZM97.5134 3.68213V3.18213H99.5475V3.68213V4.18213H97.5134V3.68213ZM101.582 3.68213V3.18213H103.616V3.68213V4.18213H101.582V3.68213ZM105.65 3.68213V3.18213H106.667V3.68213V4.18213H105.65V3.68213Z" fill="#838383"/>
</svg>
