<svg width="200" height="71" viewBox="0 0 200 71" fill="none" xmlns="http://www.w3.org/2000/svg">
<path d="M-0.00016284 67.6821C-0.00016284 66.2094 1.19374 65.0155 2.6665 65.0155C4.13926 65.0155 5.33317 66.2094 5.33317 67.6821C5.33317 69.1549 4.13926 70.3488 2.6665 70.3488C1.19374 70.3488 -0.00016284 69.1549 -0.00016284 67.6821ZM199.02 3.32858C199.215 3.52383 199.215 3.84042 199.02 4.03568L195.838 7.21766C195.643 7.41293 195.326 7.41293 195.131 7.21766C194.936 7.0224 194.936 6.70582 195.131 6.51056L197.959 3.68213L195.131 0.853699C194.936 0.65844 194.936 0.341858 195.131 0.146599C195.326 -0.0486679 195.643 -0.0486679 195.838 0.146599L199.02 3.32858ZM2.6665 67.6821V67.1821H90.7801V67.6821V68.1821H2.6665V67.6821ZM101.78 56.6821H101.28V14.6821H101.78H102.28V56.6821H101.78ZM112.78 3.68213V3.18213H198.667V3.68213V4.18213H112.78V3.68213ZM101.78 14.6821H101.28C101.28 8.33086 106.429 3.18213 112.78 3.18213V3.68213V4.18213C106.981 4.18213 102.28 8.88314 102.28 14.6821H101.78ZM90.7801 67.6821V67.1821C96.5791 67.1821 101.28 62.4811 101.28 56.6821H101.78H102.28C102.28 63.0334 97.1314 68.1821 90.7801 68.1821V67.6821Z" fill="#FF6D00"/>
</svg>
