<svg width="105" height="136" viewBox="0 0 105 136" fill="none" xmlns="http://www.w3.org/2000/svg">
<path d="M-0.00016284 132.682C-0.00016284 131.209 1.19374 130.015 2.6665 130.015C4.13926 130.015 5.33317 131.209 5.33317 132.682C5.33317 134.155 4.13926 135.349 2.6665 135.349C1.19374 135.349 -0.00016284 134.155 -0.00016284 132.682ZM104.02 3.32857C104.215 3.52383 104.215 3.84042 104.02 4.03568L100.838 7.21766C100.643 7.41293 100.326 7.41293 100.131 7.21766C99.9357 7.0224 99.9357 6.70582 100.131 6.51055L102.959 3.68213L100.131 0.853699C99.9357 0.658432 99.9357 0.341858 100.131 0.146591C100.326 -0.0486755 100.643 -0.0486755 100.838 0.146591L104.02 3.32857ZM2.6665 132.682V132.182H58.2784V132.682V133.182H2.6665V132.682ZM69.2784 121.682H68.7784V14.6821H69.2784H69.7784V121.682H69.2784ZM80.2784 3.68213V3.18213H103.667V3.68213V4.18213H80.2784V3.68213ZM69.2784 14.6821H68.7784C68.7784 8.33085 73.9271 3.18213 80.2784 3.18213V3.68213V4.18213C74.4794 4.18213 69.7784 8.88313 69.7784 14.6821H69.2784ZM58.2784 132.682V132.182C64.0774 132.182 68.7784 127.481 68.7784 121.682H69.2784H69.7784C69.7784 128.033 64.6297 133.182 58.2784 133.182V132.682Z" fill="#155EEF"/>
</svg>
