<svg width="108" height="97" viewBox="0 0 108 97" fill="none" xmlns="http://www.w3.org/2000/svg">
<path d="M0.000325441 2.6665C0.000325441 4.13926 1.19423 5.33317 2.66699 5.33317C4.13975 5.33317 5.33366 4.13926 5.33366 2.6665C5.33366 1.19374 4.13975 -0.00016284 2.66699 -0.00016284C1.19423 -0.00016284 0.000325441 1.19374 0.000325441 2.6665ZM107.021 93.0201C107.216 92.8248 107.216 92.5082 107.021 92.313L103.839 89.131C103.643 88.9357 103.327 88.9357 103.131 89.131C102.936 89.3262 102.936 89.6428 103.131 89.8381L105.96 92.6665L103.131 95.4949C102.936 95.6902 102.936 96.0068 103.131 96.202C103.327 96.3973 103.643 96.3973 103.839 96.202L107.021 93.0201ZM2.66699 2.6665V3.1665H3.69539V2.6665V2.1665H2.66699V2.6665ZM5.7522 2.6665V3.1665H7.809V2.6665V2.1665H5.7522V2.6665ZM9.8658 2.6665V3.1665H11.9226V2.6665V2.1665H9.8658V2.6665ZM13.9794 2.6665V3.1665H16.0362V2.6665V2.1665H13.9794V2.6665ZM18.093 2.6665V3.1665H20.1498V2.6665V2.1665H18.093V2.6665ZM22.2066 2.6665V3.1665H24.2634V2.6665V2.1665H22.2066V2.6665ZM26.3202 2.6665V3.1665H28.377V2.6665V2.1665H26.3202V2.6665ZM30.4338 2.6665V3.1665H32.4906V2.6665V2.1665H30.4338V2.6665ZM34.5474 2.6665V3.1665H36.6042V2.6665V2.1665H34.5474V2.6665ZM38.661 2.6665V3.1665H40.7178V2.6665V2.1665H38.661V2.6665ZM42.7747 2.6665V3.1665H44.8315V2.6665V2.1665H42.7747V2.6665ZM46.8883 2.6665V3.1665H48.9451V2.6665V2.1665H46.8883V2.6665ZM51.0019 2.6665V3.1665H53.0587V2.6665V2.1665H51.0019V2.6665ZM55.1155 2.6665V3.1665H57.1723V2.6665V2.1665H55.1155V2.6665ZM59.2291 2.6665V3.1665H60.2575V2.6665V2.1665H59.2291V2.6665ZM60.2575 2.6665V3.1665C60.6052 3.1665 60.9488 3.18339 61.2876 3.21636L61.3361 2.71871L61.3845 2.22106C61.0136 2.18496 60.6376 2.1665 60.2575 2.1665V2.6665ZM63.4517 3.13745L63.3067 3.61597C63.9705 3.81708 64.6065 4.08219 65.2077 4.40417L65.4438 3.96342L65.6798 3.52266C65.0213 3.16991 64.3242 2.87936 63.5967 2.65893L63.4517 3.13745ZM67.2359 5.16306L66.9185 5.54939C67.45 5.98609 67.9379 6.47397 68.3746 7.00548L68.7609 6.68807L69.1472 6.37066C68.6692 5.78883 68.1351 5.25478 67.5533 4.77674L67.2359 5.16306ZM69.9606 8.48022L69.5198 8.7163C69.8418 9.31745 70.1069 9.95349 70.308 10.6173L70.7865 10.4723L71.265 10.3273C71.0446 9.59974 70.7541 8.90272 70.4013 8.24414L69.9606 8.48022ZM71.2053 12.5879L70.7076 12.6363C70.7406 12.9751 70.7575 13.3188 70.7575 13.6665H71.2575H71.7575C71.7575 13.2864 71.739 12.9104 71.7029 12.5395L71.2053 12.5879ZM71.2575 13.6665H70.7575V14.6665H71.2575H71.7575V13.6665H71.2575ZM71.2575 16.6665H70.7575V18.6665H71.2575H71.7575V16.6665H71.2575ZM71.2575 20.6665H70.7575V22.6665H71.2575H71.7575V20.6665H71.2575ZM71.2575 24.6665H70.7575V26.6665H71.2575H71.7575V24.6665H71.2575ZM71.2575 28.6665H70.7575V30.6665H71.2575H71.7575V28.6665H71.2575ZM71.2575 32.6665H70.7575V34.6665H71.2575H71.7575V32.6665H71.2575ZM71.2575 36.6665H70.7575V38.6665H71.2575H71.7575V36.6665H71.2575ZM71.2575 40.6665H70.7575V42.6665H71.2575H71.7575V40.6665H71.2575ZM71.2575 44.6665H70.7575V46.6665H71.2575H71.7575V44.6665H71.2575ZM71.2575 48.6665H70.7575V50.6665H71.2575H71.7575V48.6665H71.2575ZM71.2575 52.6665H70.7575V54.6665H71.2575H71.7575V52.6665H71.2575ZM71.2575 56.6665H70.7575V58.6665H71.2575H71.7575V56.6665H71.2575ZM71.2575 60.6665H70.7575V62.6665H71.2575H71.7575V60.6665H71.2575ZM71.2575 64.6665H70.7575V66.6665H71.2575H71.7575V64.6665H71.2575ZM71.2575 68.6665H70.7575V70.6665H71.2575H71.7575V68.6665H71.2575ZM71.2575 72.6665H70.7575V74.6665H71.2575H71.7575V72.6665H71.2575ZM71.2575 76.6665H70.7575V78.6665H71.2575H71.7575V76.6665H71.2575ZM71.2575 80.6665H70.7575V81.6665H71.2575H71.7575V80.6665H71.2575ZM71.2575 81.6665H70.7575C70.7575 82.0466 70.7759 82.4226 70.812 82.7935L71.3097 82.7451L71.8073 82.6967C71.7744 82.3579 71.7575 82.0142 71.7575 81.6665H71.2575ZM71.7284 84.8607L71.2499 85.0057C71.4703 85.7333 71.7609 86.4303 72.1136 87.0889L72.5544 86.8528L72.9951 86.6167C72.6731 86.0156 72.408 85.3795 72.2069 84.7157L71.7284 84.8607ZM73.754 88.6449L73.3677 88.9623C73.8457 89.5442 74.3798 90.0782 74.9616 90.5563L75.279 90.1699L75.5965 89.7836C75.0649 89.3469 74.5771 88.859 74.1404 88.3275L73.754 88.6449ZM77.0712 91.3696L76.8351 91.8103C77.4937 92.1631 78.1907 92.4536 78.9183 92.6741L79.0633 92.1956L79.2082 91.717C78.5445 91.5159 77.9084 91.2508 77.3073 90.9288L77.0712 91.3696ZM81.1789 92.6143L81.1304 93.1119C81.5014 93.148 81.8773 93.1665 82.2575 93.1665V92.6665V92.1665C81.9097 92.1665 81.5661 92.1496 81.2273 92.1166L81.1789 92.6143ZM82.2575 92.6665V93.1665H83.2745V92.6665V92.1665H82.2575V92.6665ZM85.3087 92.6665V93.1665H87.3428V92.6665V92.1665H85.3087V92.6665ZM89.3769 92.6665V93.1665H91.411V92.6665V92.1665H89.3769V92.6665ZM93.4452 92.6665V93.1665H95.4793V92.6665V92.1665H93.4452V92.6665ZM97.5134 92.6665V93.1665H99.5475V92.6665V92.1665H97.5134V92.6665ZM101.582 92.6665V93.1665H103.616V92.6665V92.1665H101.582V92.6665ZM105.65 92.6665V93.1665H106.667V92.6665V92.1665H105.65V92.6665Z" fill="#838383"/>
</svg>
