<svg width="200" height="71" viewBox="0 0 200 71" fill="none" xmlns="http://www.w3.org/2000/svg">
<path d="M-0.00016284 2.6665C-0.00016284 4.13926 1.19374 5.33317 2.6665 5.33317C4.13926 5.33317 5.33317 4.13926 5.33317 2.6665C5.33317 1.19374 4.13926 -0.00016284 2.6665 -0.00016284C1.19374 -0.00016284 -0.00016284 1.19374 -0.00016284 2.6665ZM199.02 67.0201C199.215 66.8248 199.215 66.5082 199.02 66.313L195.838 63.131C195.643 62.9357 195.326 62.9357 195.131 63.131C194.936 63.3262 194.936 63.6428 195.131 63.8381L197.959 66.6665L195.131 69.4949C194.936 69.6902 194.936 70.0068 195.131 70.202C195.326 70.3973 195.643 70.3973 195.838 70.202L199.02 67.0201ZM2.6665 2.6665V3.1665H90.7801V2.6665V2.1665H2.6665V2.6665ZM101.78 13.6665H101.28V55.6665H101.78H102.28V13.6665H101.78ZM112.78 66.6665V67.1665H198.667V66.6665V66.1665H112.78V66.6665ZM101.78 55.6665H101.28C101.28 62.0178 106.429 67.1665 112.78 67.1665V66.6665V66.1665C106.981 66.1665 102.28 61.4655 102.28 55.6665H101.78ZM90.7801 2.6665V3.1665C96.5791 3.1665 101.28 7.86752 101.28 13.6665H101.78H102.28C102.28 7.31523 97.1314 2.1665 90.7801 2.1665V2.6665Z" fill="#059669"/>
</svg>
