<svg width="41" height="56" viewBox="0 0 41 56" fill="none" xmlns="http://www.w3.org/2000/svg">
<path d="M36.6464 55.8536C36.8417 56.0488 37.1583 56.0488 37.3536 55.8536L40.5355 52.6716C40.7308 52.4763 40.7308 52.1597 40.5355 51.9645C40.3403 51.7692 40.0237 51.7692 39.8284 51.9645L37 54.7929L34.1716 51.9645C33.9763 51.7692 33.6597 51.7692 33.4645 51.9645C33.2692 52.1597 33.2692 52.4763 33.4645 52.6716L36.6464 55.8536ZM0 0.5V1H0.928571V0.5V0H0V0.5ZM2.78571 0.5V1H4.64286V0.5V0H2.78571V0.5ZM6.5 0.5V1H8.35714V0.5V0H6.5V0.5ZM10.2143 0.5V1H12.0714V0.5V0H10.2143V0.5ZM13.9286 0.5V1H15.7857V0.5V0H13.9286V0.5ZM17.6429 0.5V1H19.5V0.5V0H17.6429V0.5ZM21.3571 0.5V1H23.2143V0.5V0H21.3571V0.5ZM25.0714 0.5V1H26V0.5V0H25.0714V0.5ZM26 0.5V1C26.3477 1 26.6914 1.01689 27.0302 1.04986L27.0786 0.55221L27.127 0.0545608C26.7561 0.0184608 26.3801 0 26 0V0.5ZM29.1942 0.970946L29.0492 1.44947C29.713 1.65057 30.3491 1.91568 30.9502 2.23767L31.1863 1.79691L31.4224 1.35615C30.7638 1.00341 30.0668 0.71286 29.3392 0.492426L29.1942 0.970946ZM32.9784 2.99656L32.661 3.38289C33.1925 3.81959 33.6804 4.30747 34.1171 4.83898L34.5034 4.52157L34.8898 4.20415C34.4117 3.62232 33.8777 3.08828 33.2958 2.61023L32.9784 2.99656ZM35.7031 6.31371L35.2623 6.54979C35.5843 7.15094 35.8494 7.78698 36.0505 8.45076L36.5291 8.30579L37.0076 8.16081C36.7871 7.43323 36.4966 6.73621 36.1438 6.07764L35.7031 6.31371ZM36.9478 10.4214L36.4501 10.4698C36.4831 10.8086 36.5 11.1523 36.5 11.5H37H37.5C37.5 11.1199 37.4815 10.7439 37.4454 10.373L36.9478 10.4214ZM37 11.5H36.5V12.5H37H37.5V11.5H37ZM37 14.5H36.5V16.5H37H37.5V14.5H37ZM37 18.5H36.5V20.5H37H37.5V18.5H37ZM37 22.5H36.5V24.5H37H37.5V22.5H37ZM37 26.5H36.5V28.5H37H37.5V26.5H37ZM37 30.5H36.5V32.5H37H37.5V30.5H37ZM37 34.5H36.5V36.5H37H37.5V34.5H37ZM37 38.5H36.5V40.5H37H37.5V38.5H37ZM37 42.5H36.5V44.5H37H37.5V42.5H37ZM37 46.5H36.5V48.5H37H37.5V46.5H37ZM37 50.5H36.5V52.5H37H37.5V50.5H37ZM37 54.5H36.5V55.5H37H37.5V54.5H37Z" fill="#838383"/>
</svg>
