<svg width="103" height="136" viewBox="0 0 103 136" fill="none" xmlns="http://www.w3.org/2000/svg">
<path d="M-0.00016284 2.6665C-0.00016284 4.13926 1.19374 5.33317 2.6665 5.33317C4.13926 5.33317 5.33317 4.13926 5.33317 2.6665C5.33317 1.19374 4.13926 -0.00016284 2.6665 -0.00016284C1.19374 -0.00016284 -0.00016284 1.19374 -0.00016284 2.6665ZM102.02 132.02C102.215 131.825 102.215 131.508 102.02 131.313L98.8381 128.131C98.6428 127.936 98.3262 127.936 98.131 128.131C97.9357 128.326 97.9357 128.643 98.131 128.838L100.959 131.667L98.131 134.495C97.9357 134.69 97.9357 135.007 98.131 135.202C98.3262 135.397 98.6428 135.397 98.8381 135.202L102.02 132.02ZM2.6665 2.6665V3.1665H56.9594V2.6665V2.1665H2.6665V2.6665ZM67.9594 13.6665H67.4594V120.667H67.9594H68.4594V13.6665H67.9594ZM78.9594 131.667V132.167H101.667V131.667V131.167H78.9594V131.667ZM67.9594 120.667H67.4594C67.4594 127.018 72.6081 132.167 78.9594 132.167V131.667V131.167C73.1604 131.167 68.4594 126.465 68.4594 120.667H67.9594ZM56.9594 2.6665V3.1665C62.7584 3.1665 67.4594 7.86751 67.4594 13.6665H67.9594H68.4594C68.4594 7.31523 63.3106 2.1665 56.9594 2.1665V2.6665Z" fill="#EF4444"/>
</svg>
