<svg width="49" height="68" viewBox="0 0 49 68" fill="none" xmlns="http://www.w3.org/2000/svg">
<path d="M0.146447 64.3536C-0.0488155 64.1583 -0.0488155 63.8417 0.146447 63.6464L3.32843 60.4645C3.52369 60.2692 3.84027 60.2692 4.03553 60.4645C4.2308 60.6597 4.2308 60.9763 4.03553 61.1716L1.20711 64L4.03553 66.8284C4.2308 67.0237 4.2308 67.3403 4.03553 67.5355C3.84027 67.7308 3.52369 67.7308 3.32843 67.5355L0.146447 64.3536ZM0.5 64V63.5H1.52778V64V64.5H0.5V64ZM3.58333 64V63.5H5.63889V64V64.5H3.58333V64ZM7.69444 64V63.5H9.75V64V64.5H7.69444V64ZM11.8056 64V63.5H13.8611V64V64.5H11.8056V64ZM15.9167 64V63.5H17.9722V64V64.5H15.9167V64ZM20.0278 64V63.5H22.0833V64V64.5H20.0278V64ZM24.1389 64V63.5H26.1944V64V64.5H24.1389V64ZM28.25 64V63.5H30.3056V64V64.5H28.25V64ZM32.3611 64V63.5H34.4167V64V64.5H32.3611V64ZM36.4722 64V63.5H37.5V64V64.5H36.4722V64ZM37.5 64V63.5C37.8477 63.5 38.1914 63.4831 38.5302 63.4501L38.5786 63.9478L38.627 64.4454C38.2561 64.4815 37.8801 64.5 37.5 64.5V64ZM40.6942 63.5291L40.5492 63.0505C41.213 62.8494 41.8491 62.5843 42.4502 62.2623L42.6863 62.7031L42.9224 63.1438C42.2638 63.4966 41.5668 63.7871 40.8392 64.0076L40.6942 63.5291ZM44.4784 61.5034L44.161 61.1171C44.6925 60.6804 45.1804 60.1925 45.6171 59.661L46.0034 59.9784L46.3898 60.2958C45.9117 60.8777 45.3777 61.4117 44.7958 61.8898L44.4784 61.5034ZM47.2031 58.1863L46.7623 57.9502C47.0843 57.3491 47.3494 56.713 47.5505 56.0492L48.0291 56.1942L48.5076 56.3392C48.2871 57.0668 47.9966 57.7638 47.6438 58.4224L47.2031 58.1863ZM48.4478 54.0786L47.9501 54.0302C47.9831 53.6914 48 53.3477 48 53H48.5H49C49 53.3801 48.9815 53.7561 48.9454 54.127L48.4478 54.0786ZM48.5 53H48V51.9808H48.5H49V53H48.5ZM48.5 49.9423H48V47.9038H48.5H49V49.9423H48.5ZM48.5 45.8654H48V43.8269H48.5H49V45.8654H48.5ZM48.5 41.7885H48V39.75H48.5H49V41.7885H48.5ZM48.5 37.7115H48V35.6731H48.5H49V37.7115H48.5ZM48.5 33.6346H48V31.5962H48.5H49V33.6346H48.5ZM48.5 29.5577H48V27.5192H48.5H49V29.5577H48.5ZM48.5 25.4808H48V23.4423H48.5H49V25.4808H48.5ZM48.5 21.4038H48V19.3654H48.5H49V21.4038H48.5ZM48.5 17.3269H48V15.2885H48.5H49V17.3269H48.5ZM48.5 13.25H48V11.2115H48.5H49V13.25H48.5ZM48.5 9.17308H48V7.13462H48.5H49V9.17308H48.5ZM48.5 5.09616H48V3.0577H48.5H49V5.09616H48.5ZM48.5 1.01924H48V3.8147e-06H48.5H49V1.01924H48.5Z" fill="#838383"/>
</svg>
