<svg width="8" height="58" viewBox="0 0 8 58" fill="none" xmlns="http://www.w3.org/2000/svg">
<path d="M3.32809 57.8536C3.52335 58.0488 3.83993 58.0488 4.03519 57.8536L7.21717 54.6716C7.41244 54.4763 7.41244 54.1597 7.21717 53.9645C7.02191 53.7692 6.70533 53.7692 6.51007 53.9645L3.68164 56.7929L0.853214 53.9645C0.657951 53.7692 0.341369 53.7692 0.146107 53.9645C-0.0491555 54.1597 -0.0491555 54.4763 0.146107 54.6716L3.32809 57.8536ZM3.68164 0H3.18164V1.02679H3.68164H4.18164V0H3.68164ZM3.68164 3.08036H3.18164V5.13393H3.68164H4.18164V3.08036H3.68164ZM3.68164 7.1875H3.18164V9.24107H3.68164H4.18164V7.1875H3.68164ZM3.68164 11.2946H3.18164V13.3482H3.68164H4.18164V11.2946H3.68164ZM3.68164 15.4018H3.18164V17.4554H3.68164H4.18164V15.4018H3.68164ZM3.68164 19.5089H3.18164V21.5625H3.68164H4.18164V19.5089H3.68164ZM3.68164 23.6161H3.18164V25.6696H3.68164H4.18164V23.6161H3.68164ZM3.68164 27.7232H3.18164V29.7768H3.68164H4.18164V27.7232H3.68164ZM3.68164 31.8304H3.18164V33.8839H3.68164H4.18164V31.8304H3.68164ZM3.68164 35.9375H3.18164V37.9911H3.68164H4.18164V35.9375H3.68164ZM3.68164 40.0446H3.18164V42.0982H3.68164H4.18164V40.0446H3.68164ZM3.68164 44.1518H3.18164V46.2053H3.68164H4.18164V44.1518H3.68164ZM3.68164 48.2589H3.18164V50.3125H3.68164H4.18164V48.2589H3.68164ZM3.68164 52.3661H3.18164V54.4196H3.68164H4.18164V52.3661H3.68164ZM3.68164 56.4732H3.18164V57.5H3.68164H4.18164V56.4732H3.68164Z" fill="#838383"/>
</svg>
