<svg width="178" height="38" viewBox="0 0 178 38" fill="none" xmlns="http://www.w3.org/2000/svg">
<path d="M0.000325441 2.6665C0.000325441 4.13926 1.19423 5.33317 2.66699 5.33317C4.13975 5.33317 5.33366 4.13926 5.33366 2.6665C5.33366 1.19374 4.13975 -0.00016284 2.66699 -0.00016284C1.19423 -0.00016284 0.000325441 1.19374 0.000325441 2.6665ZM177.021 34.0201C177.216 33.8248 177.216 33.5082 177.021 33.313L173.839 30.131C173.643 29.9357 173.327 29.9357 173.131 30.131C172.936 30.3262 172.936 30.6428 173.131 30.8381L175.96 33.6665L173.131 36.4949C172.936 36.6902 172.936 37.0068 173.131 37.202C173.327 37.3973 173.643 37.3973 173.839 37.202L177.021 34.0201ZM2.66699 2.6665V3.1665H3.66466V2.6665V2.1665H2.66699V2.6665ZM5.65999 2.6665V3.1665H7.65532V2.6665V2.1665H5.65999V2.6665ZM9.65065 2.6665V3.1665H11.646V2.6665V2.1665H9.65065V2.6665ZM13.6413 2.6665V3.1665H15.6366V2.6665V2.1665H13.6413V2.6665ZM17.632 2.6665V3.1665H19.6273V2.6665V2.1665H17.632V2.6665ZM21.6226 2.6665V3.1665H23.618V2.6665V2.1665H21.6226V2.6665ZM25.6133 2.6665V3.1665H27.6086V2.6665V2.1665H25.6133V2.6665ZM29.6039 2.6665V3.1665H31.5993V2.6665V2.1665H29.6039V2.6665ZM33.5946 2.6665V3.1665H35.5899V2.6665V2.1665H33.5946V2.6665ZM37.5853 2.6665V3.1665H39.5806V2.6665V2.1665H37.5853V2.6665ZM41.5759 2.6665V3.1665H43.5713V2.6665V2.1665H41.5759V2.6665ZM45.5666 2.6665V3.1665H47.5619V2.6665V2.1665H45.5666V2.6665ZM49.5572 2.6665V3.1665H51.5526V2.6665V2.1665H49.5572V2.6665ZM53.5479 2.6665V3.1665H55.5432V2.6665V2.1665H53.5479V2.6665ZM57.5386 2.6665V3.1665H59.5339V2.6665V2.1665H57.5386V2.6665ZM61.5292 2.6665V3.1665H63.5246V2.6665V2.1665H61.5292V2.6665ZM65.5199 2.6665V3.1665H67.5152V2.6665V2.1665H65.5199V2.6665ZM69.5106 2.6665V3.1665H71.5059V2.6665V2.1665H69.5106V2.6665ZM73.5012 2.6665V3.1665H75.4965V2.6665V2.1665H73.5012V2.6665ZM77.4919 2.6665V3.1665H79.4872V2.6665V2.1665H77.4919V2.6665ZM81.4825 2.6665V3.1665H83.4779V2.6665V2.1665H81.4825V2.6665ZM85.4732 2.6665V3.1665H87.4685V2.6665V2.1665H85.4732V2.6665ZM89.4639 2.6665V3.1665H91.4592V2.6665V2.1665H89.4639V2.6665ZM93.4545 2.6665V3.1665H95.4499V2.6665V2.1665H93.4545V2.6665ZM97.4452 2.6665V3.1665H99.4405V2.6665V2.1665H97.4452V2.6665ZM101.436 2.6665V3.1665H103.431V2.6665V2.1665H101.436V2.6665ZM105.427 2.6665V3.1665H106.424V2.6665V2.1665H105.427V2.6665ZM106.424 2.6665V3.1665C106.772 3.1665 107.116 3.18339 107.454 3.21636L107.503 2.71871L107.551 2.22106C107.18 2.18496 106.804 2.1665 106.424 2.1665V2.6665ZM109.618 3.13745L109.473 3.61597C110.137 3.81708 110.773 4.08219 111.374 4.40417L111.61 3.96342L111.846 3.52266C111.188 3.16991 110.491 2.87936 109.763 2.65893L109.618 3.13745ZM113.403 5.16306L113.085 5.54939C113.617 5.98609 114.105 6.47397 114.541 7.00548L114.928 6.68807L115.314 6.37066C114.836 5.78882 114.302 5.25478 113.72 4.77674L113.403 5.16306ZM116.127 8.48022L115.686 8.71629C116.008 9.31744 116.274 9.95349 116.475 10.6173L116.953 10.4723L117.432 10.3273C117.211 9.59974 116.921 8.90272 116.568 8.24414L116.127 8.48022ZM117.372 12.5879L116.874 12.6363C116.907 12.9751 116.924 13.3188 116.924 13.6665H117.424H117.924C117.924 13.2864 117.906 12.9104 117.87 12.5395L117.372 12.5879ZM117.424 13.6665H116.924V14.7915H117.424H117.924V13.6665H117.424ZM117.424 17.0415H116.924V19.2915H117.424H117.924V17.0415H117.424ZM117.424 21.5415H116.924V22.6665H117.424H117.924V21.5415H117.424ZM117.424 22.6665H116.924C116.924 23.0466 116.943 23.4226 116.979 23.7935L117.476 23.7451L117.974 23.6967C117.941 23.3579 117.924 23.0142 117.924 22.6665H117.424ZM117.895 25.8607L117.417 26.0057C117.637 26.7333 117.928 27.4303 118.28 28.0889L118.721 27.8528L119.162 27.6167C118.84 27.0156 118.575 26.3795 118.374 25.7157L117.895 25.8607ZM119.921 29.6449L119.534 29.9624C120.012 30.5442 120.546 31.0782 121.128 31.5563L121.446 31.1699L121.763 30.7836C121.232 30.3469 120.744 29.859 120.307 29.3275L119.921 29.6449ZM123.238 32.3696L123.002 32.8103C123.66 33.1631 124.357 33.4536 125.085 33.6741L125.23 33.1956L125.375 32.717C124.711 32.5159 124.075 32.2508 123.474 31.9288L123.238 32.3696ZM127.346 33.6143L127.297 34.1119C127.668 34.148 128.044 34.1665 128.424 34.1665V33.6665V33.1665C128.076 33.1665 127.733 33.1496 127.394 33.1166L127.346 33.6143ZM128.424 33.6665V34.1665H129.429V33.6665V33.1665H128.424V33.6665ZM131.439 33.6665V34.1665H133.449V33.6665V33.1665H131.439V33.6665ZM135.46 33.6665V34.1665H137.47V33.6665V33.1665H135.46V33.6665ZM139.48 33.6665V34.1665H141.49V33.6665V33.1665H139.48V33.6665ZM143.5 33.6665V34.1665H145.51V33.6665V33.1665H143.5V33.6665ZM147.52 33.6665V34.1665H149.53V33.6665V33.1665H147.52V33.6665ZM151.541 33.6665V34.1665H153.551V33.6665V33.1665H151.541V33.6665ZM155.561 33.6665V34.1665H157.571V33.6665V33.1665H155.561V33.6665ZM159.581 33.6665V34.1665H161.591V33.6665V33.1665H159.581V33.6665ZM163.601 33.6665V34.1665H165.611V33.6665V33.1665H163.601V33.6665ZM167.621 33.6665V34.1665H169.632V33.6665V33.1665H167.621V33.6665ZM171.642 33.6665V34.1665H173.652V33.6665V33.1665H171.642V33.6665ZM175.662 33.6665V34.1665H176.667V33.6665V33.1665H175.662V33.6665Z" fill="#838383"/>
</svg>
